<?xml version="1.0" standalone="no"?>
<!DOCTYPE svg PUBLIC "-//W3C//DTD SVG 20010904//EN"
 "http://www.w3.org/TR/2001/REC-SVG-20010904/DTD/svg10.dtd">
<svg version="1.0" xmlns="http://www.w3.org/2000/svg"
 width="25.000000pt" height="25.000000pt" viewBox="0 0 25.000000 25.000000"
 preserveAspectRatio="xMidYMid meet">

<g transform="translate(0.000000,25.000000) scale(0.100000,-0.100000)"
fill="#000000" stroke="none">
<path d="M62 187 c-27 -28 -32 -41 -32 -80 0 -46 1 -47 30 -47 20 0 30 -5 30
-15 0 -19 100 -21 118 -3 7 7 12 40 12 80 l0 68 -30 0 c-20 0 -30 5 -30 15 0
30 -63 18 -98 -18z m88 -47 l0 -70 -55 0 -55 0 0 40 c0 38 2 40 30 40 27 0 30
3 30 30 0 25 4 30 25 30 24 0 25 -2 25 -70z m-60 35 c0 -8 -7 -15 -15 -15 -16
0 -20 12 -8 23 11 12 23 8 23 -8z m118 -62 l-3 -68 -52 -3 c-32 -2 -53 1 -53
7 0 6 11 11 25 11 13 0 28 6 32 14 4 7 15 16 23 19 12 4 11 6 -2 6 -23 1 -23
21 0 22 16 1 16 2 0 6 -11 3 -18 14 -18 29 0 19 5 24 25 24 26 0 26 -1 23 -67z"/>
<path d="M78 123 c12 -2 30 -2 40 0 9 3 -1 5 -23 4 -22 0 -30 -2 -17 -4z"/>
<path d="M78 93 c12 -2 30 -2 40 0 9 3 -1 5 -23 4 -22 0 -30 -2 -17 -4z"/>
</g>
</svg>
