<?xml version="1.0" standalone="no"?>
<!DOCTYPE svg PUBLIC "-//W3C//DTD SVG 20010904//EN"
 "http://www.w3.org/TR/2001/REC-SVG-20010904/DTD/svg10.dtd">
<svg version="1.0" xmlns="http://www.w3.org/2000/svg"
 width="25.000000pt" height="25.000000pt" viewBox="0 0 25.000000 25.000000"
 preserveAspectRatio="xMidYMid meet">

<g transform="translate(0.000000,25.000000) scale(0.100000,-0.100000)"
fill="#000000" stroke="none">
<path d="M34 207 c-3 -8 -4 -49 -2 -93 l3 -79 90 0 90 0 1 50 2 50 -7 -45 -6
-45 -80 0 -80 0 0 80 0 80 45 6 45 6 -48 1 c-32 1 -49 -2 -53 -11z"/>
<path d="M145 170 c-39 -39 -47 -52 -37 -62 10 -10 23 -2 63 38 41 41 48 53
36 62 -10 9 -23 1 -62 -38z m55 22 c0 -14 -76 -83 -83 -75 -4 4 9 24 30 45 36
37 53 47 53 30z"/>
</g>
</svg>
